<svg id="Layer_1" data-name="Layer 1" xmlns="http://www.w3.org/2000/svg" viewBox="0 0 275.6 388.3"><defs><style>.cls-1{fill:#0085ff;}.cls-2{fill:#ff7a00;}</style></defs><path class="cls-1" d="M256.76,296a36.61,36.61,0,1,1,25.89-62.49h0A36.61,36.61,0,0,1,256.76,296Zm0-61a24.41,24.41,0,1,0,17.29,7.15A24.28,24.28,0,0,0,256.76,234.94Z" transform="translate(-118.2 -61.85)"/><path class="cls-1" d="M353.29,353.81a138.33,138.33,0,0,1-195.62,0L118.2,393.29a194.16,194.16,0,0,0,274.57,0Z" transform="translate(-118.2 -61.85)"/><path class="cls-1" d="M392.77,118.71l-39.48,39.48a138.33,138.33,0,0,0-195.62,0L118.2,118.71a194.16,194.16,0,0,1,274.57,0Z" transform="translate(-118.2 -61.85)"/><path class="cls-2" d="M393.8,256a138.32,138.32,0,0,1-236.13,97.81l37.57-37.57a85.19,85.19,0,1,0,0-120.48l-37.57-37.57A138.32,138.32,0,0,1,393.8,256Z" transform="translate(-118.2 -61.85)"/><polygon class="cls-2" points="176.38 177.08 141.23 212.24 132.02 221.45 100.75 190.18 119.17 190.18 132.02 203.03 157.97 177.08 176.38 177.08"/></svg>